# Alias OBJ Model File
# Exported from SketchUp, (c) 2000-2012 Trimble Navigation Limited
# File units = millimeters

mtllib resource.mtl

g Mesh1 Model

usemtl FrontColor
v 50 -125 -72.1688
vt -1.9685 -2.84129
vn 1.1969e-14 -0.5 -0.866025
v 97.7413 -76.2644 -100.306
vt -3.84808 -0.625741
v 102 -76.75 -100.026
vt -4.01575 -0.647814
f 1/1/1 2/2/1 3/3/1

v 93.7728 -74.8409 -101.128
vt -3.69184 -0.561024
f 2/2/1 1/1/1 4/4/1

v 90.3649 -72.5763 -102.436
vt -3.55767 -0.458074
f 4/4/1 1/1/1 5/5/1

v 87.75 -69.625 -104.14
vt -3.45472 -0.323907
f 5/5/1 1/1/1 6/6/1

v 50 4.51195e-14 -144.338
vt -1.9685 2.84129
f 6/6/1 1/1/1 7/7/1

v -5.41434e-13 -81.545 -47.0801
vt -1.31297 -2.47929
vn -0.655978 -0.37739 -0.653658
v 1.80478e-12 0 -94.1601
vt -2.62595 0.987501
vt -5.41478 0.987501
vt -3.40213 -4.32672
f 8/8/2 9/9/2 7/10/2 1/11/2 

v 3.60956e-13 81.545 -47.0801
vt -1.85355 3.21043
vn -1 3.64532e-15 -1.21392e-14
vt -3.70709 9.49723e-29
vt -1.85355 -3.21043
v -1.26334e-12 -81.545 47.0801
vt 1.85355 -3.21043
v -7.21911e-13 -4.51195e-14 94.1601
vt 3.70709 -1.77636e-15
v -7.21911e-13 81.545 47.0801
vt 1.85355 3.21043
f 10/12/3 9/13/3 8/14/3 11/15/3 12/16/3 13/17/3 

vt -5.41478 -0.987501
vn -0.655978 0.37739 -0.653658
vt -2.62595 -0.987501
vt -1.31297 2.47929
v 50 125 -72.1688
vt -3.40213 4.32672
f 7/18/4 9/19/4 10/20/4 14/21/4 

vt -2.84129 4.71403
vn -0.655978 0.75478 -4.66229e-15
vt -1.85355 2.10598
vt 1.85355 2.10598
v 50 125 72.1688
vt 2.84129 4.71403
f 14/22/5 10/23/5 13/24/5 15/25/5 

vt 3.40213 4.32672
vn -0.655978 0.37739 0.653658
vt 1.31297 2.47929
vt 2.62595 -0.987501
v 50 -1.35358e-13 144.338
vt 5.41478 -0.987501
f 15/26/6 13/27/6 12/28/6 16/29/6 

vt 1.31297 -2.47929
vn -0.655978 -0.37739 0.653658
v 50 -125 72.1688
vt 3.40213 -4.32672
vt 5.41478 0.987501
vt 2.62595 0.987501
f 11/30/7 17/31/7 16/32/7 12/33/7 

vt 2.84129 -4.71403
vn -0.655978 -0.75478 -4.89148e-15
vt 1.85355 -2.10598
vt -1.85355 -2.10598
vt -2.84129 -4.71403
f 17/34/8 11/35/8 8/36/8 1/37/8 

v 85.5455 -125 9.5
vt -3.36793 -0.374016
vn -5.20609e-15 -1 -3.41407e-29
f 18/38/9 17/1/9 1/7/9

v 88.565 -125 13.435
vt -3.48681 -0.528938
f 19/39/9 17/1/9 18/38/9

v 154 -125 72.1688
vt -6.06299 -2.84129
f 17/1/9 19/39/9 20/40/9

v 92.5 -125 16.4545
vt -3.64173 -0.647814
f 20/40/9 19/39/9 21/41/9

vt 3.28354 -4.92126
vn -0.5 2.5915e-15 0.866025
vt 3.08827 -4.92126
vn -0.707107 3.45998e-15 0.707107
v 88.565 -200 13.435
vt 3.08827 -7.87402
v 92.5 -200 16.4545
vt 3.28354 -7.87402
f 21/42/10 19/43/11 22/44/11 23/45/10 

vt 2.54227 -4.92126
vt 2.34699 -4.92126
vn -0.866025 3.57463e-15 0.5
v 85.5455 -200 9.5
vt 2.34699 -7.87402
vt 2.54227 -7.87402
f 19/46/11 18/47/12 24/48/12 22/49/11 

vt 1.6344 -4.92126
v 83.6474 -125 4.91756
vt 1.43912 -4.92126
vn -0.965926 4.40561e-15 0.258819
v 83.6474 -200 4.91756
vt 1.43912 -7.87402
vt 1.6344 -7.87402
f 18/50/12 25/51/13 26/52/13 24/53/12 

vt -3.29321 -0.193605
f 18/38/9 1/7/9 25/54/9

v 83 -125 7.21911e-13
vt -3.26772 -2.84217e-14
f 25/54/9 1/7/9 27/55/9

v 83.6474 -125 -4.91756
vt -3.29321 0.193605
f 1/7/9 28/56/9 27/55/9

v 85.5455 -125 -9.5
vt -3.36793 0.374016
f 28/56/9 1/7/9 29/57/9

v 88.565 -125 -13.435
vt -3.48681 0.528938
f 29/57/9 1/7/9 30/58/9

v 154 -125 -72.1688
vt -6.06299 2.84129
f 30/58/9 1/7/9 31/59/9

v 113.635 -72.5763 -102.436
vt -4.47382 -0.458074
f 32/60/1 31/40/1 1/1/1

v 116.25 -69.625 -104.14
vt -4.57677 -0.323907
f 33/61/1 31/40/1 32/60/1

v 154 -6.76792e-13 -144.338
f 31/40/1 33/61/1 34/59/1

v 117.894 -66.1882 -106.124
vt -4.64149 -0.167667
f 34/59/1 33/61/1 35/62/1

vt 5.03259 -1.2331
vn 0.965926 -0.224144 0.12941
vt 4.94297 -1.37651
vn 0.866025 -0.433013 0.25
v 116.25 -107.125 -169.091
vt 7.44699 -2.94132
v 117.894 -103.688 -171.076
vt 7.53661 -2.79791
f 35/63/14 33/64/15 36/65/15 37/66/14 

vt 5.46734 -0.850749
vt 5.36783 -0.987487
vn 0.707107 -0.612372 0.353553
v 113.635 -110.076 -167.388
vt 7.75531 -2.72493
vt 7.85482 -2.5882
f 33/67/15 32/68/16 38/69/16 36/70/15 

vt 5.8213 -1.01354
v 110.227 -74.8409 -101.128
vt 5.70492 -1.13624
vn 0.5 -0.75 0.433013
v 110.227 -112.341 -166.08
vt 7.84738 -3.16815
vt 7.96375 -3.04544
f 32/71/16 39/72/17 40/73/17 38/74/16 

vt -4.33966 -0.561024
f 32/60/1 1/1/1 39/75/1

v 106.259 -76.2644 -100.306
vt -4.18341 -0.625741
f 39/75/1 1/1/1 41/76/1

f 41/76/1 1/1/1 3/3/1

vt 5.05106 -3.90352
vn 0.258819 -0.836516 0.482963
vt 4.88611 -3.94082
vn -2.71272e-14 -0.866025 0.5
v 102 -114.25 -164.978
vt 5.53723 -6.82089
v 106.259 -113.764 -165.258
vt 5.70218 -6.7836
f 41/77/18 3/78/19 42/79/19 43/80/18 

vt 2.88066 -5.69671
vt 2.71571 -5.65942
vn -0.258819 -0.836516 0.482963
v 97.7413 -113.764 -165.258
vt 2.06459 -8.53949
vt 2.22954 -8.57678
f 3/81/19 2/82/20 44/83/20 42/84/19 

vt 0.444001 -6.19845
vt 0.303041 -6.10502
vn -0.5 -0.75 0.433013
v 93.7728 -112.341 -166.08
vt -1.32831 -8.56622
vt -1.18734 -8.65965
f 2/85/20 4/86/21 45/87/21 44/88/20 

vt -1.32022 -5.75949
vt -1.4366 -5.63679
vn -0.707107 -0.612372 0.353553
v 90.3649 -110.076 -167.388
vt -3.57905 -7.66869
vt -3.46268 -7.7914
f 4/89/21 5/90/22 46/91/22 45/92/21 

vt -2.49091 -4.94074
vt -2.59042 -4.80401
vn -0.866025 -0.433013 0.25
v 87.75 -107.125 -169.091
vt -4.9779 -6.54145
vt -4.87839 -6.67819
f 5/93/22 6/94/23 47/95/23 46/96/22 

vt -3.31415 -3.98294
v 86.1062 -66.1882 -106.124
vt -3.40378 -3.83953
vn -0.965926 -0.224144 0.12941
v 86.1062 -103.688 -171.076
vt -5.9078 -5.40434
vt -5.81818 -5.54776
f 6/97/23 48/98/24 49/99/24 47/100/23 

vt -3.39001 -0.167667
f 6/6/1 7/7/1 48/101/1

v 85.5455 -62.5 -108.253
vt -3.36793 -3.24185e-14
f 48/101/1 7/7/1 50/102/1

v 86.1062 -58.8118 -110.383
vt -3.39001 0.167667
f 50/102/1 7/7/1 51/103/1

v 87.75 -55.375 -112.367
vt -3.45472 0.323907
f 51/103/1 7/7/1 52/104/1

v 90.3649 -52.4237 -114.071
vt -3.55767 0.458074
f 52/104/1 7/7/1 53/105/1

v 93.7728 -50.1591 -115.378
vt -3.69184 0.561024
f 53/105/1 7/7/1 54/106/1

v 97.7413 -48.7356 -116.2
vt -3.84808 0.625741
f 54/106/1 7/7/1 55/107/1

v 102 -48.25 -116.48
vt -4.01575 0.647814
f 55/107/1 7/7/1 56/108/1

f 56/108/1 7/7/1 34/59/1

v 116.362 51.7271 -114.473
vt -4.58117 -0.489744
vn 1.8813e-14 0.5 -0.866025
f 57/109/25 34/40/25 7/1/25

v 119.092 55.3133 -112.402
vt -4.68866 -0.326714
f 58/110/25 34/40/25 57/109/25

v 154 125 -72.1688
f 34/40/25 58/110/25 59/59/25

v 120.657 59.3892 -110.049
vt -4.75029 -0.141419
f 59/59/25 58/110/25 60/111/25

vt 3.49465 3.72419
vn 0.981966 -0.163727 -0.0945277
vt 3.59615 3.55737
vn 0.899576 -0.37825 -0.218383
v 119.092 92.8133 -177.354
vt 6.11867 5.09219
v 120.657 96.8892 -175.001
vt 6.01717 5.25901
f 60/112/26 58/113/27 61/114/27 62/115/26 

vt 2.73486 4.69752
vt 2.84593 4.5369
vn 0.75588 -0.566995 -0.327355
v 116.362 89.2271 -179.425
vt 5.27453 6.21639
vt 5.16346 6.377
f 58/116/27 57/117/28 63/118/28 61/119/27 

vt 1.67915 5.56887
v 112.653 48.8751 -116.12
vt 1.80728 5.42152
vn 0.560673 -0.717101 -0.414019
v 112.653 86.3751 -181.071
vt 4.03545 7.35905
vt 3.90732 7.5064
f 57/120/28 64/121/29 65/122/29 63/123/28 

vt -4.43515 -0.619398
f 57/109/25 7/1/25 64/124/25

v 108.218 46.9516 -117.23
vt -4.26055 -0.706842
f 64/124/25 7/1/25 66/125/25

v 103.359 46.0877 -117.729
vt -4.06926 -0.746115
f 66/125/25 7/1/25 67/126/25

v 102 46.1576 -117.688
vt -4.01575 -0.742938
f 7/1/25 68/127/25 67/126/25

v 98.4079 46.3423 -117.582
vt -3.87433 -0.734542
f 68/127/25 7/1/25 69/128/25

v 93.7015 47.6979 -116.799
vt -3.68903 -0.672911
f 69/128/25 7/1/25 70/129/25

v 89.5605 50.0624 -115.434
vt -3.526 -0.565422
f 70/129/25 7/1/25 71/130/25

v 86.2673 53.2744 -113.58
vt -3.39635 -0.419401
f 71/130/25 7/1/25 72/131/25

v 84.0462 57.1152 -111.362
vt -3.30891 -0.244798
f 72/131/25 7/1/25 73/132/25

f 73/132/25 7/1/25 14/7/25

v 83.0487 61.3229 -108.933
vt -3.26963 -0.0535128
f 73/132/25 14/7/25 74/133/25

v 83.3426 65.6108 -106.457
vt -3.28121 0.141419
f 74/133/25 14/7/25 75/134/25

v 84.9081 69.6867 -104.104
vt -3.34284 0.326714
f 75/134/25 14/7/25 76/135/25

v 87.6383 73.2729 -102.033
vt -3.45033 0.489744
f 76/135/25 14/7/25 77/136/25

v 91.3472 76.1249 -100.387
vt -3.59635 0.619398
f 77/136/25 14/7/25 78/137/25

v 95.7821 78.0484 -99.2763
vt -3.77095 0.706842
f 78/137/25 14/7/25 79/138/25

v 100.641 78.9123 -98.7775
vt -3.96224 0.746115
f 79/138/25 14/7/25 80/139/25

f 80/139/25 14/7/25 59/59/25

vt 1.9685 2.84129
vn 5.20609e-15 1 -1.87558e-15
v 87.8474 125 -12.6769
vt 3.45856 0.499091
vt 6.06299 2.84129
f 14/140/30 81/141/30 59/142/30

v 85.0486 125 -8.58199
vt 3.34837 0.337874
f 81/141/30 14/140/30 82/143/30

v 83.405 125 -3.90223
vt 3.28366 0.153631
f 82/143/30 14/140/30 83/144/30

v 83.0287 125 1.04347
vt 3.26885 -0.0410814
f 83/144/30 14/140/30 84/145/30

v 83.9452 125 5.91805
vt 3.30493 -0.232994
f 14/140/30 85/146/30 84/145/30

vt 1.9685 -2.84129
f 15/147/30 85/146/30 14/140/30

v 86.0921 125 10.3893
vt 3.38945 -0.409029
f 85/146/30 15/147/30 86/148/30

v 89.3231 125 14.1526
vt 3.51666 -0.557189
f 86/148/30 15/147/30 87/149/30

v 154 125 72.1688
vt 6.06299 -2.84129
f 87/149/30 15/147/30 88/150/30

vn -7.96139e-15 0.5 0.866025
v 102 76.75 100.026
vt 4.01575 0.647814
f 15/140/31 89/151/31 88/142/31

v 97.7413 76.2644 100.306
vt 3.84808 0.625741
f 15/140/31 90/152/31 89/151/31

v 93.7728 74.8409 101.128
vt 3.69184 0.561024
f 15/140/31 91/153/31 90/152/31

v 90.3649 72.5763 102.436
vt 3.55767 0.458074
f 15/140/31 92/154/31 91/153/31

v 87.75 69.625 104.14
vt 3.45472 0.323907
f 15/140/31 93/155/31 92/154/31

v 86.1062 66.1882 106.124
vt 3.39001 0.167667
f 15/140/31 94/156/31 93/155/31

v 85.5455 62.5 108.253
vt 3.36793 -5.68434e-14
f 15/140/31 95/157/31 94/156/31

v 86.1062 58.8118 110.383
vt 3.39001 -0.167667
f 15/140/31 96/158/31 95/157/31

v 87.75 55.375 112.367
vt 3.45472 -0.323907
f 15/140/31 97/159/31 96/158/31

f 16/147/31 97/159/31 15/140/31

v 90.3649 52.4237 114.071
vt 3.55767 -0.458074
f 97/159/31 16/147/31 98/160/31

v 93.7728 50.1591 115.378
vt 3.69184 -0.561024
f 98/160/31 16/147/31 99/161/31

v 97.7413 48.7356 116.2
vt 3.84808 -0.625741
f 99/161/31 16/147/31 100/162/31

v 102 48.25 116.48
vt 4.01575 -0.647814
f 100/162/31 16/147/31 101/163/31

v 106.259 48.7356 116.2
vt 4.18341 -0.625741
f 16/147/31 102/164/31 101/163/31

v 110.227 50.1591 115.378
vt 4.33966 -0.561024
f 16/147/31 103/165/31 102/164/31

v 113.635 52.4237 114.071
vt 4.47382 -0.458074
f 16/147/31 104/166/31 103/165/31

v 154 -6.76792e-13 144.338
f 105/150/31 104/166/31 16/147/31

v 116.25 55.375 112.367
vt 4.57677 -0.323907
f 104/166/31 105/150/31 106/167/31

f 106/167/31 105/150/31 88/142/31

vt 2.84129 -4.92126
vn 1 -5.23386e-15 9.4821e-15
vt 5.68258 5.08749e-15
vt 2.84129 4.92126
vt -2.84129 4.92126
vt -5.68258 5.08749e-15
vt -2.84129 -4.92126
f 31/168/32 34/169/32 59/170/32 88/171/32 105/172/32 20/173/32 

v 120.971 125 -1.04347
vt 4.76265 0.0410814
f 59/142/30 107/174/30 88/150/30

v 120.055 125 -5.91805
vt 4.72657 0.232994
f 59/142/30 108/175/30 107/174/30

v 117.908 125 -10.3893
vt 4.64204 0.409029
f 59/142/30 109/176/30 108/175/30

v 114.677 125 -14.1526
vt 4.51484 0.557189
f 59/142/30 110/177/30 109/176/30

v 110.582 125 -16.9514
vt 4.35362 0.667377
f 59/142/30 111/178/30 110/177/30

v 105.902 125 -18.595
vt 4.16938 0.732085
f 59/142/30 112/179/30 111/178/30

v 102 125 -18.8919
vt 4.01575 0.743776
f 59/142/30 113/180/30 112/179/30

v 100.957 125 -18.9713
vt 3.97467 0.746903
f 59/142/30 114/181/30 113/180/30

v 96.0819 125 -18.0548
vt 3.78275 0.71082
f 59/142/30 115/182/30 114/181/30

v 91.6107 125 -15.9079
vt 3.60672 0.626296
f 59/142/30 116/183/30 115/182/30

f 59/142/30 81/141/30 116/183/30

vt -3.14448 4.92126
vn -0.546807 2.61238e-15 -0.837259
vt -2.9492 4.92126
vn -0.744873 4.13903e-15 -0.667206
v 87.8474 200 -12.6769
vt -2.9492 7.87402
v 91.6107 200 -15.9079
vt -3.14448 7.87402
f 116/184/33 81/185/34 117/186/34 118/187/33 

vt -2.36361 4.92126
vt -2.16834 4.92126
vn -0.892178 4.05069e-15 -0.451684
v 85.0486 200 -8.58199
vt -2.16834 7.87402
vt -2.36361 7.87402
f 81/188/34 82/189/35 119/190/35 117/191/34 

vt -1.42832 4.92126
vt -1.23305 4.92126
vn -0.978682 4.21614e-15 -0.20538
v 83.405 200 -3.90223
vt -1.23305 7.87402
vt -1.42832 7.87402
f 82/192/35 83/193/36 120/194/36 119/195/35 

vt -0.402351 4.92126
vt -0.207076 4.92126
vn -0.998491 4.82547e-15 0.0549194
v 83.0287 200 1.04347
vt -0.207076 7.87402
vt -0.402351 7.87402
f 83/196/36 84/197/37 121/198/37 120/199/36 

vt 0.644387 4.92126
vt 0.839663 4.92126
vn -0.950254 4.68559e-15 0.311476
v 83.9452 200 5.91805
vt 0.839663 7.87402
vt 0.644387 7.87402
f 84/200/37 85/201/38 122/202/38 121/203/37 

vt 1.64056 4.92126
vt 1.83583 4.92126
vn -0.837259 3.79975e-15 0.546807
v 86.0921 200 10.3893
vt 1.83583 7.87402
vt 1.64056 7.87402
f 85/204/38 86/205/39 123/206/39 122/207/38 

vt 2.51827 4.92126
vt 2.71355 4.92126
vn -0.667206 2.96839e-15 0.744873
v 89.3231 200 14.1526
vt 2.71355 7.87402
vt 2.51827 7.87402
f 86/208/39 87/209/40 124/210/40 123/211/39 

vt 3.21772 4.92126
v 93.418 125 16.9514
vt 3.41299 4.92126
vn -0.451684 2.43183e-15 0.892178
v 93.418 200 16.9514
vt 3.41299 7.87402
vt 3.21772 7.87402
f 87/212/40 125/213/41 126/214/41 124/215/40 

vt 3.67787 -0.667377
f 87/149/30 88/150/30 125/216/30

v 98.0978 125 18.595
vt 3.86212 -0.732085
f 125/216/30 88/150/30 127/217/30

v 102 125 18.8919
vt 4.01575 -0.743776
f 127/217/30 88/150/30 128/218/30

v 103.043 125 18.9713
vt 4.05683 -0.746903
f 128/218/30 88/150/30 129/219/30

v 107.918 125 18.0548
vt 4.24874 -0.71082
f 129/219/30 88/150/30 130/220/30

v 112.389 125 15.9079
vt 4.42478 -0.626296
f 130/220/30 88/150/30 131/221/30

v 116.153 125 12.6769
vt 4.57294 -0.499091
f 131/221/30 88/150/30 132/222/30

v 118.951 125 8.58199
vt 4.68313 -0.337874
f 132/222/30 88/150/30 133/223/30

v 120.595 125 3.90223
vt 4.74783 -0.153631
f 133/223/30 88/150/30 134/224/30

f 134/224/30 88/150/30 107/174/30

vt 0.207076 4.92126
vn 0.978682 -5.10728e-15 0.20538
vt 0.402351 4.92126
vn 0.998491 -6.02666e-15 -0.0549194
v 120.971 200 -1.04347
vt 0.402351 7.87402
v 120.595 200 3.90223
vt 0.207076 7.87402
f 134/225/42 107/226/43 135/227/43 136/228/42 

vt -0.839663 4.92126
vt -0.644387 4.92126
vn 0.950254 -5.81802e-15 -0.311476
v 120.055 200 -5.91805
vt -0.644387 7.87402
vt -0.839663 7.87402
f 107/229/43 108/230/44 137/231/44 135/232/43 

vt -1.83583 4.92126
vt -1.64056 4.92126
vn 0.837259 -4.79678e-15 -0.546807
v 117.908 200 -10.3893
vt -1.64056 7.87402
vt -1.83583 7.87402
f 108/233/44 109/234/45 138/235/45 137/236/44 

vt -2.71355 4.92126
vt -2.51827 4.92126
vn 0.667206 -3.09942e-15 -0.744873
v 114.677 200 -14.1526
vt -2.51827 7.87402
vt -2.71355 7.87402
f 109/237/45 110/238/46 139/239/46 138/240/45 

vt -3.41299 4.92126
vt -3.21772 4.92126
vn 0.451684 -2.10238e-15 -0.892178
v 110.582 200 -16.9514
vt -3.21772 7.87402
vt -3.41299 7.87402
f 110/241/46 111/242/47 140/243/47 139/244/46 

vt -3.8865 4.92126
vt -3.69123 4.92126
vn 0.20538 -2.44657e-15 -0.978682
v 105.902 200 -18.595
vt -3.69123 7.87402
vt -3.8865 7.87402
f 111/245/47 112/246/48 141/247/48 140/248/47 

vt -4.10181 4.92126
vt -3.94773 4.92126
vn 0.0758796 -2.74185e-15 -0.997117
v 102 200 -18.8919
vt -3.94773 7.87402
vt -4.10181 7.87402
f 112/249/48 113/250/49 142/251/49 141/252/48 

vt -3.90653 4.92126
vn -0.0549194 -2.08246e-15 -0.998491
v 100.957 200 -18.9713
vt -3.90653 7.87402
f 113/250/49 114/253/50 143/254/50 142/251/49 

vt -4.04424 4.92126
vt -3.84896 4.92126
vn -0.311476 -5.22246e-17 -0.950254
v 96.0819 200 -18.0548
vt -3.84896 7.87402
vt -4.04424 7.87402
f 114/255/50 115/256/51 144/257/51 143/258/50 

vt -3.71771 4.92126
vt -3.52243 4.92126
vt -3.52243 7.87402
vt -3.71771 7.87402
f 115/259/51 116/260/33 118/261/33 144/262/51 

v 98.0978 200 18.595
vn 4.7762e-15 1 -1.75804e-15
v 102 200 18.8919
v 103.043 200 18.9713
v 107.918 200 18.0548
v 112.389 200 15.9079
v 116.153 200 12.6769
v 118.951 200 8.58199
f 145/217/52 146/218/52 147/219/52 148/220/52 149/221/52 150/222/52 151/223/52 136/224/52 135/174/52 137/175/52 138/176/52 139/177/52 140/178/52 141/179/52 142/180/52 143/181/52 144/182/52 118/183/52 117/141/52 119/143/52 120/144/52 121/145/52 122/146/52 123/148/52 124/149/52 126/216/52 

vt 3.90653 4.92126
vn -0.20538 1.23617e-15 0.978682
vt 4.06061 4.92126
vn -0.0758796 9.19472e-16 0.997117
vt 4.06061 7.87402
vt 3.90653 7.87402
f 127/263/53 128/264/54 146/265/54 145/266/53 

vt 4.10181 4.92126
vn 0.0549194 1.0821e-15 0.998491
vt 4.10181 7.87402
f 128/264/54 129/267/55 147/268/55 146/265/54 

vt 3.84896 4.92126
vt 4.04424 4.92126
vn 0.311476 7.45963e-17 0.950254
vt 4.04424 7.87402
vt 3.84896 7.87402
f 129/269/55 130/270/56 148/271/56 147/272/55 

vt 3.52243 4.92126
vt 3.71771 4.92126
vn 0.546807 -1.55996e-15 0.837259
vt 3.71771 7.87402
vt 3.52243 7.87402
f 130/273/56 131/274/57 149/275/57 148/276/56 

vt 2.9492 4.92126
vt 3.14448 4.92126
vn 0.744873 -3.82399e-15 0.667206
vt 3.14448 7.87402
vt 2.9492 7.87402
f 131/277/57 132/278/58 150/279/58 149/280/57 

vt 2.16834 4.92126
vt 2.36361 4.92126
vn 0.892178 -4.67954e-15 0.451684
vt 2.36361 7.87402
vt 2.16834 7.87402
f 132/281/58 133/282/59 151/283/59 150/284/58 

vt 1.23305 4.92126
vt 1.42832 4.92126
vt 1.42832 7.87402
vt 1.23305 7.87402
f 133/285/59 134/286/42 136/287/42 151/288/59 

vt 3.69123 4.92126
vt 3.8865 4.92126
vt 3.8865 7.87402
vt 3.69123 7.87402
f 125/289/41 127/290/53 145/291/53 126/292/41 

v 118.362 -70.6811 103.53
vt 4.65993 -0.37192
vn -1.31018e-14 -0.5 0.866025
f 152/293/60 20/150/60 105/142/60

v 115.36 -74.0699 101.573
vt 4.54172 -0.525974
f 153/294/60 20/150/60 152/293/60

f 20/150/60 153/294/60 17/147/60

v 111.447 -76.6701 100.072
vt 4.38767 -0.644184
f 17/147/60 153/294/60 154/295/60

vt -5.6963 -1.14534
vn 0.5 -0.75 -0.433013
vt -5.82992 -1.00444
vn 0.707107 -0.612372 -0.353553
v 115.36 -111.57 166.525
vt -7.97238 -3.03635
v 111.447 -114.17 165.024
vt -7.83875 -3.17724
f 154/296/61 153/297/62 155/298/62 156/299/61 

vt -5.36046 -0.997621
vt -5.47472 -0.840614
vn 0.866025 -0.433013 -0.25
v 118.362 -108.181 168.482
vt -7.86219 -2.57806
vt -7.74793 -2.73507
f 153/300/62 152/301/63 157/302/63 155/303/62 

vt -4.93632 -1.38714
v 120.25 -66.7349 105.808
vt -5.03923 -1.22247
vn 0.965926 -0.224144 -0.12941
v 120.25 -104.235 170.76
vt -7.54325 -2.78728
vt -7.44035 -2.95195
f 152/304/63 158/305/64 159/306/64 157/307/63 

vt 4.73424 -0.19252
f 152/293/60 105/142/60 158/308/60

v 120.894 -62.5 108.253
vt 4.75959 0
f 158/308/60 105/142/60 160/309/60

v 120.25 -58.2651 110.698
vt 4.73424 0.19252
f 160/309/60 105/142/60 161/310/60

v 118.362 -54.3189 112.977
vt 4.65993 0.37192
f 161/310/60 105/142/60 162/311/60

v 115.36 -50.9301 114.933
vt 4.54172 0.525974
f 162/311/60 105/142/60 163/312/60

v 111.447 -48.3299 116.434
vt 4.38767 0.644184
f 163/312/60 105/142/60 164/313/60

v 106.89 -46.6953 117.378
vt 4.20827 0.718494
f 164/313/60 105/142/60 165/314/60

v 102 -46.1377 117.7
vt 4.01575 0.74384
f 165/314/60 105/142/60 166/315/60

f 16/140/60 166/315/60 105/142/60

v 97.11 -46.6953 117.378
vt 3.82323 0.718494
f 16/140/60 167/316/60 166/315/60

v 92.5532 -48.3299 116.434
vt 3.64383 0.644184
f 16/140/60 168/317/60 167/316/60

v 88.6403 -50.9301 114.933
vt 3.48977 0.525974
f 16/140/60 169/318/60 168/317/60

v 85.6377 -54.3189 112.977
vt 3.37156 0.37192
f 16/140/60 170/319/60 169/318/60

v 83.7503 -58.2651 110.698
vt 3.29725 0.19252
f 16/140/60 171/320/60 170/319/60

v 83.1065 -62.5 108.253
vt 3.27191 8.43769e-15
f 16/140/60 172/321/60 171/320/60

v 83.7503 -66.7349 105.808
vt 3.29725 -0.19252
f 16/140/60 173/322/60 172/321/60

v 85.6377 -70.6811 103.53
vt 3.37156 -0.37192
f 16/140/60 174/323/60 173/322/60

f 17/147/60 174/323/60 16/140/60

v 88.6403 -74.0699 101.573
vt 3.48977 -0.525974
f 174/323/60 17/147/60 175/324/60

v 92.5532 -76.6701 100.072
vt 3.64383 -0.644184
f 175/324/60 17/147/60 176/325/60

v 97.11 -78.3047 99.1283
vt 3.82323 -0.718494
f 176/325/60 17/147/60 177/326/60

v 102 -78.8623 98.8064
vt 4.01575 -0.74384
f 177/326/60 17/147/60 178/327/60

v 106.89 -78.3047 99.1283
vt 4.20827 -0.718494
f 17/147/60 179/328/60 178/327/60

f 17/147/60 154/295/60 179/328/60

vt -5.73041 -2.10588
vn 0.258819 -0.836516 -0.482963
vt -5.89227 -1.9986
vt -7.52362 -4.4598
v 106.89 -115.805 164.08
vt -7.36176 -4.56708
f 179/329/65 154/330/61 156/331/61 180/332/65 

v 97.11 -115.805 164.08
vn -1.28598e-14 -0.5 0.866025
v 102 -116.362 163.758
v 120.894 -100 173.205
vt 4.75959 6.26166e-14
v 120.25 -95.7651 175.65
v 118.362 -91.8189 177.928
v 115.36 -88.4301 179.885
v 111.447 -85.8299 181.386
v 106.89 -84.1953 182.33
v 102 -83.6377 182.652
v 97.11 -84.1953 182.33
v 92.5532 -85.8299 181.386
v 88.6403 -88.4301 179.885
v 85.6377 -91.8189 177.928
v 83.7503 -95.7651 175.65
v 83.1065 -100 173.205
vt 3.27191 6.92779e-14
v 83.7503 -104.235 170.76
v 85.6377 -108.181 168.482
v 88.6403 -111.57 166.525
v 92.5532 -114.17 165.024
f 181/326/66 182/327/66 180/328/66 156/295/66 155/294/66 157/293/66 159/308/66 183/333/66 184/310/66 185/311/66 186/312/66 187/313/66 188/314/66 189/315/66 190/316/66 191/317/66 192/318/66 193/319/66 194/320/66 195/334/66 196/322/66 197/323/66 198/324/66 199/325/66 

vt -2.70349 -5.65666
vn -0.258819 -0.836516 -0.482963
vt -2.89289 -5.69948
vn 8.69247e-15 -0.866025 -0.5
vt -2.24177 -8.57955
vt -2.05236 -8.53673
f 177/335/67 178/336/68 182/337/68 181/338/67 

vt -4.87389 -3.94358
vt -5.06329 -3.90076
vt -5.71441 -6.78083
vt -5.52501 -6.82365
f 178/339/68 179/340/65 180/341/65 182/342/68 

vt -0.292594 -6.0981
vn -0.5 -0.75 -0.433013
vt -0.454449 -6.20538
vt 1.1769 -8.66657
vt 1.33875 -8.55929
f 176/343/69 177/344/67 181/345/67 199/346/69 

vt 1.44522 -5.62769
vn -0.707107 -0.612372 -0.353553
vt 1.3116 -5.76859
vt 3.45405 -7.80049
vt 3.58768 -7.6596
f 175/347/70 176/348/69 199/349/69 198/350/70 

vt 2.5978 -4.79387
vn -0.866025 -0.433013 -0.25
vt 2.48354 -4.95088
vt 4.87101 -6.68833
vt 4.98527 -6.53132
f 174/351/71 175/352/70 198/353/70 197/354/71 

vt 3.41042 -3.8289
vn -0.965926 -0.224144 -0.12941
vt 3.30751 -3.99357
vt 5.81153 -5.55839
vt 5.91444 -5.39371
f 173/355/72 174/356/71 197/357/71 196/358/72 

vt 4.03782 -2.84556
vn -1 5.56752e-14 7.71264e-15
vt 3.9401 -3.01336
vt 6.49174 -4.49926
vt 6.58946 -4.33146
f 172/359/73 173/360/72 196/361/72 195/362/73 

vt 4.56536 -1.93965
vn -0.965926 0.224144 0.12941
vt 4.46764 -2.10745
vt 7.01928 -3.59335
vt 7.117 -3.42555
f 171/363/74 172/364/73 195/365/73 194/366/74 

vt 5.03923 -1.22247
vn -0.866025 0.433013 0.25
vt 4.93632 -1.38714
vt 7.44035 -2.95195
vt 7.54325 -2.78728
f 170/367/75 171/368/74 194/369/74 193/370/75 

vt 5.47472 -0.840614
vn -0.707107 0.612372 0.353553
vt 5.36046 -0.997621
vt 7.74793 -2.73507
vt 7.86219 -2.57806
f 169/371/76 170/372/75 193/373/75 192/374/76 

vt 5.82992 -1.00444
vn -0.5 0.75 0.433013
vt 5.6963 -1.14534
vt 7.83875 -3.17724
vt 7.97238 -3.03635
f 168/375/77 169/376/76 192/377/76 191/378/77 

vt 5.89227 -1.9986
vn -0.258819 0.836516 0.482963
vt 5.73041 -2.10588
vt 7.36176 -4.56708
vt 7.52362 -4.4598
f 167/379/78 168/380/77 191/381/77 190/382/78 

vt 5.06329 -3.90076
vn -6.62084e-15 0.866025 0.5
vt 4.87389 -3.94358
vt 5.52501 -6.82365
vt 5.71441 -6.78083
f 166/383/79 167/384/78 190/385/78 189/386/79 

vt 2.89289 -5.69948
vn 0.258819 0.836516 0.482963
vt 2.70349 -5.65666
vt 2.05236 -8.53673
vt 2.24177 -8.57955
f 165/387/80 166/388/79 189/389/79 188/390/80 

vt 0.454449 -6.20538
vn 0.5 0.75 0.433013
vt 0.292594 -6.0981
vt -1.33875 -8.55929
vt -1.1769 -8.66657
f 164/391/81 165/392/80 188/393/80 187/394/81 

vt -1.3116 -5.76859
vn 0.707107 0.612372 0.353553
vt -1.44522 -5.62769
vt -3.58768 -7.6596
vt -3.45405 -7.80049
f 163/395/82 164/396/81 187/397/81 186/398/82 

vt -2.48354 -4.95088
vn 0.866025 0.433013 0.25
vt -2.5978 -4.79387
vt -4.98527 -6.53132
vt -4.87101 -6.68833
f 162/399/83 163/400/82 186/401/82 185/402/83 

vt -3.30751 -3.99357
vn 0.965926 0.224144 0.12941
vt -3.41042 -3.8289
vt -5.91444 -5.39371
vt -5.81153 -5.55839
f 161/403/84 162/404/83 185/405/83 184/406/84 

vt -3.9401 -3.01336
vn 1 8.93743e-15 1.03862e-14
vt -4.03782 -2.84556
vt -6.58946 -4.33146
vt -6.49174 -4.49926
f 160/407/85 161/408/84 184/409/84 183/410/85 

vt -4.46764 -2.10745
vt -4.56536 -1.93965
vt -7.117 -3.42555
vt -7.01928 -3.59335
f 158/411/64 160/412/85 183/413/85 159/414/64 

v 121 -125 2.52669e-12
vt -4.76378 -9.9476e-14
f 200/415/9 31/59/9 20/40/9

v 120.353 -125 -4.91756
vt -4.73829 0.193605
f 201/416/9 31/59/9 200/415/9

v 118.454 -125 -9.5
vt -4.66356 0.374016
f 202/417/9 31/59/9 201/416/9

v 115.435 -125 -13.435
vt -4.54469 0.528938
f 203/418/9 31/59/9 202/417/9

v 111.5 -125 -16.4545
vt -4.38976 0.647814
f 204/419/9 31/59/9 203/418/9

v 106.918 -125 -18.3526
vt -4.20935 0.722543
f 205/420/9 31/59/9 204/419/9

v 102 -125 -19
vt -4.01575 0.748031
f 206/421/9 31/59/9 205/420/9

v 97.0824 -125 -18.3526
vt -3.82214 0.722543
f 207/422/9 31/59/9 206/421/9

v 92.5 -125 -16.4545
vt -3.64173 0.647814
f 208/423/9 31/59/9 207/422/9

f 30/58/9 31/59/9 208/423/9

vt -3.08827 -4.92126
vn -0.707107 2.5516e-15 -0.707107
vt -3.28354 -4.92126
vn -0.5 1.92475e-15 -0.866025
v 92.5 -200 -16.4545
vt -3.28354 -7.87402
v 88.565 -200 -13.435
vt -3.08827 -7.87402
f 30/424/86 208/425/87 209/426/87 210/427/86 

vt -3.61243 -4.92126
vt -3.80771 -4.92126
vn -0.258819 1.24497e-15 -0.965926
v 97.0824 -200 -18.3526
vt -3.80771 -7.87402
vt -3.61243 -7.87402
f 208/428/87 207/429/88 211/430/88 209/431/87 

vt -3.88376 -4.92126
vt -4.07903 -4.92126
vn 5.29107e-14 -2.22435e-21 -1
v 102 -200 -19
vt -4.07903 -7.87402
vt -3.88376 -7.87402
f 207/432/88 206/433/89 212/434/89 211/435/88 

vn 0.258819 -1.24569e-15 -0.965926
v 106.918 -200 -18.3526
f 206/432/89 205/433/90 213/434/90 212/435/89 

vn 0.5 -1.92483e-15 -0.866025
v 111.5 -200 -16.4545
f 205/428/90 204/429/91 214/430/91 213/431/90 

vn 0.707107 -2.55266e-15 -0.707107
v 115.435 -200 -13.435
f 204/424/91 203/425/92 215/426/92 214/427/91 

vt -2.34699 -4.92126
vt -2.54227 -4.92126
vn 0.866025 -3.79943e-15 -0.5
v 118.454 -200 -9.5
vt -2.54227 -7.87402
vt -2.34699 -7.87402
f 203/436/92 202/437/93 216/438/93 215/439/92 

vt -1.43912 -4.92126
vt -1.6344 -4.92126
vn 0.965926 -5.25063e-15 -0.258819
v 120.353 -200 -4.91756
vt -1.6344 -7.87402
vt -1.43912 -7.87402
f 202/440/93 201/441/94 217/442/94 216/443/93 

vt -0.426523 -4.92126
vt -0.621798 -4.92126
vn 1 -6.31679e-15 3.3944e-14
v 121 -200 2.52669e-12
vt -0.621798 -7.87402
vt -0.426523 -7.87402
f 201/444/94 200/445/95 218/446/95 217/447/94 

vt 0.621798 -4.92126
v 120.353 -125 4.91756
vt 0.426523 -4.92126
vn 0.965926 -5.83142e-15 0.258819
v 120.353 -200 4.91756
vt 0.426523 -7.87402
vt 0.621798 -7.87402
f 200/448/95 219/449/96 220/450/96 218/451/95 

vt -4.73829 -0.193605
f 20/40/9 219/452/9 200/415/9

v 118.454 -125 9.5
vt -4.66356 -0.374016
f 20/40/9 221/453/9 219/452/9

v 115.435 -125 13.435
vt -4.54469 -0.528938
f 20/40/9 222/454/9 221/453/9

v 111.5 -125 16.4545
vt -4.38976 -0.647814
f 20/40/9 223/455/9 222/454/9

v 106.918 -125 18.3526
vt -4.20935 -0.722543
f 20/40/9 224/456/9 223/455/9

v 102 -125 19
vt -4.01575 -0.748031
f 20/40/9 225/457/9 224/456/9

v 97.0824 -125 18.3526
vt -3.82214 -0.722543
f 20/40/9 226/458/9 225/457/9

f 20/40/9 21/41/9 226/458/9

vt 3.80771 -4.92126
vn -0.258819 1.20594e-15 0.965926
vt 3.61243 -4.92126
vt 3.61243 -7.87402
v 97.0824 -200 18.3526
vt 3.80771 -7.87402
f 226/459/97 21/460/10 23/461/10 227/462/97 

vn -5.58799e-15 -1 1.55101e-16
vt -4.76378 -9.82547e-14
v 118.454 -200 9.5
v 115.435 -200 13.435
v 111.5 -200 16.4545
v 106.918 -200 18.3526
v 102 -200 19
v 83 -200 7.21911e-13
vt -3.26772 -2.72004e-14
v 83.6474 -200 -4.91756
v 85.5455 -200 -9.5
f 211/422/98 212/421/98 213/420/98 214/419/98 215/418/98 216/417/98 217/416/98 218/463/98 220/452/98 228/453/98 229/454/98 230/455/98 231/456/98 232/457/98 227/458/98 23/41/98 22/39/98 24/38/98 26/54/98 233/464/98 234/56/98 235/57/98 210/58/98 209/423/98 

vn 0.866025 -4.44868e-15 0.5
f 219/50/96 221/51/99 228/52/99 220/53/96 

vn 0.707107 -3.03369e-15 0.707107
f 221/46/99 222/47/100 229/48/100 228/49/99 

vn 0.5 -1.68859e-15 0.866025
f 222/42/100 223/43/101 230/44/101 229/45/100 

vn 0.258819 -8.18435e-16 0.965926
f 223/459/101 224/460/102 231/461/102 230/462/101 

vt 4.07903 -4.92126
vt 3.88376 -4.92126
vn 1.77769e-15 3.98023e-17 1
vt 3.88376 -7.87402
vt 4.07903 -7.87402
f 224/465/102 225/466/103 232/467/103 231/468/102 

f 225/465/103 226/466/97 227/467/97 232/468/103 

vn -1 5.33527e-15 -4.91314e-14
f 25/448/13 27/449/104 233/450/104 26/451/13 

vn -0.965926 4.94844e-15 -0.258819
f 27/444/104 28/445/105 234/446/105 233/447/104 

vn -0.866025 3.79638e-15 -0.5
f 28/440/105 29/441/106 235/442/106 234/443/105 

f 29/436/106 30/437/86 210/438/86 235/439/106 

v 117.894 58.8118 110.383
vt 4.64149 -0.167667
f 106/167/31 88/142/31 236/469/31

v 118.454 62.5 108.253
vt 4.66356 -6.39488e-14
f 236/469/31 88/142/31 237/470/31

v 117.894 66.1882 106.124
vt 4.64149 0.167667
f 237/470/31 88/142/31 238/471/31

v 116.25 69.625 104.14
vt 4.57677 0.323907
f 238/471/31 88/142/31 239/472/31

v 113.635 72.5763 102.436
vt 4.47382 0.458074
f 239/472/31 88/142/31 240/473/31

v 110.227 74.8409 101.128
vt 4.33966 0.561024
f 240/473/31 88/142/31 241/474/31

v 106.259 76.2644 100.306
vt 4.18341 0.625741
f 241/474/31 88/142/31 242/475/31

f 242/475/31 88/142/31 89/151/31

vt -5.05106 3.90352
vn 0.258819 0.836516 -0.482963
vt -4.88611 3.94082
vn 5.45904e-15 0.866025 -0.5
v 102 114.25 164.978
vt -5.53723 6.82089
v 106.259 113.764 165.258
vt -5.70218 6.7836
f 242/476/107 89/477/108 243/478/108 244/479/107 

vt -2.88066 5.69671
vt -2.71571 5.65942
vn -0.258819 0.836516 -0.482963
v 97.7413 113.764 165.258
vt -2.06459 8.53949
vt -2.22954 8.57678
f 89/480/108 90/481/109 245/482/109 243/483/108 

vt -0.444001 6.19845
vt -0.303041 6.10502
vn -0.5 0.75 -0.433013
v 93.7728 112.341 166.08
vt 1.32831 8.56622
vt 1.18734 8.65965
f 90/484/109 91/485/110 246/486/110 245/487/109 

vt 1.32022 5.75949
vt 1.4366 5.63679
vn -0.707107 0.612372 -0.353553
v 90.3649 110.076 167.388
vt 3.57905 7.66869
vt 3.46268 7.7914
f 91/488/110 92/489/111 247/490/111 246/491/110 

vt 2.49091 4.94074
vt 2.59042 4.80401
vn -0.866025 0.433013 -0.25
v 87.75 107.125 169.091
vt 4.9779 6.54145
vt 4.87839 6.67819
f 92/492/111 93/493/112 248/494/112 247/495/111 

vt 3.31415 3.98294
vt 3.40378 3.83953
vn -0.965926 0.224144 -0.12941
v 86.1062 103.688 171.076
vt 5.9078 5.40434
vt 5.81818 5.54776
f 93/496/112 94/497/113 249/498/113 248/499/112 

vt 3.94641 3.00253
vt 4.03151 2.85639
vn -1 -5.56332e-14 1.29057e-14
v 85.5455 100 173.205
vt 6.58315 4.34229
vt 6.49805 4.48843
f 94/500/113 95/501/114 250/502/114 249/503/113 

vt 4.47395 2.09662
vt 4.55905 1.95048
v 86.1062 96.3118 175.334
vt 7.11069 3.43638
vt 7.02559 3.58252
f 95/504/114 96/505/24 251/506/24 250/507/114 

vt 4.94297 1.37651
vt 5.03259 1.2331
v 87.75 92.875 177.319
vt 7.53661 2.79791
vt 7.44699 2.94132
f 96/508/24 97/509/23 252/510/23 251/511/24 

vt 5.36783 0.987487
vt 5.46734 0.850749
v 90.3649 89.9237 179.023
vt 7.85482 2.5882
vt 7.75531 2.72493
f 97/512/23 98/513/22 253/514/22 252/515/23 

vt 5.70492 1.13624
vt 5.8213 1.01354
v 93.7728 87.6591 180.33
vt 7.96375 3.04544
vt 7.84738 3.16815
f 98/516/22 99/517/21 254/518/21 253/519/22 

vt 5.74086 2.09896
vt 5.88182 2.00553
v 97.7413 86.2356 181.152
vt 7.51317 4.46672
vt 7.37221 4.56015
f 99/520/21 100/521/20 255/522/20 254/523/21 

vt 4.88611 3.94082
vt 5.05106 3.90352
vn -1.55093e-14 -0.866025 0.5
v 102 85.75 181.432
vt 5.70218 6.7836
vt 5.53723 6.82089
f 100/524/20 101/525/115 256/526/115 255/527/20 

vt 2.71571 5.65942
vt 2.88066 5.69671
v 106.259 86.2356 181.152
vt 2.22954 8.57678
vt 2.06459 8.53949
f 101/528/115 102/529/18 257/530/18 256/531/115 

vt 0.303041 6.10502
vt 0.444001 6.19845
v 110.227 87.6591 180.33
vt -1.18734 8.65965
vt -1.32831 8.56622
f 102/532/18 103/533/17 258/534/17 257/535/18 

vt -1.4366 5.63679
vt -1.32022 5.75949
v 113.635 89.9237 179.023
vt -3.46268 7.7914
vt -3.57905 7.66869
f 103/536/17 104/537/16 259/538/16 258/539/17 

vt -2.59042 4.80401
vt -2.49091 4.94074
v 116.25 92.875 177.319
vt -4.87839 6.67819
vt -4.9779 6.54145
f 104/540/16 106/541/15 260/542/15 259/543/16 

vt -3.40378 3.83953
vt -3.31415 3.98294
v 117.894 96.3118 175.334
vt -5.81818 5.54776
vt -5.9078 5.40434
f 106/544/15 236/545/14 261/546/14 260/547/15 

vt -4.03151 2.85639
vt -3.94641 3.00253
vn 1 -2.47896e-14 1.53833e-14
v 118.454 100 173.205
vt -6.49805 4.48843
vt -6.58315 4.34229
f 236/548/14 237/549/116 262/550/116 261/551/14 

vt -4.55905 1.95048
vt -4.47395 2.09662
vn 0.965926 0.224144 -0.12941
v 117.894 103.688 171.076
vt -7.02559 3.58252
vt -7.11069 3.43638
f 237/552/116 238/553/117 263/554/117 262/555/116 

vt -5.03259 1.2331
vt -4.94297 1.37651
vn 0.866025 0.433013 -0.25
v 116.25 107.125 169.091
vt -7.44699 2.94132
vt -7.53661 2.79791
f 238/556/117 239/557/118 264/558/118 263/559/117 

vt -5.46734 0.850749
vt -5.36783 0.987487
vn 0.707107 0.612372 -0.353553
v 113.635 110.076 167.388
vt -7.75531 2.72493
vt -7.85482 2.5882
f 239/560/118 240/561/119 265/562/119 264/563/118 

vt -5.8213 1.01354
vt -5.70492 1.13624
vn 0.5 0.75 -0.433013
v 110.227 112.341 166.08
vt -7.84738 3.16815
vt -7.96375 3.04544
f 240/564/119 241/565/120 266/566/120 265/567/119 

vt -5.88182 2.00553
vt -5.74086 2.09896
vt -7.37221 4.56015
vt -7.51317 4.46672
f 241/568/120 242/569/107 244/570/107 266/571/120 

vn -5.48462e-15 0.5 0.866025
vt 4.66356 -1.19016e-13
vt 3.36793 -1.03029e-13
f 255/162/121 256/163/121 257/164/121 258/165/121 259/166/121 260/167/121 261/469/121 262/572/121 263/471/121 264/472/121 265/473/121 266/474/121 244/475/121 243/151/121 245/152/121 246/153/121 247/154/121 248/155/121 249/156/121 250/573/121 251/158/121 252/159/121 253/160/121 254/161/121 

v 102 78.8424 -98.8179
vt -4.01575 0.742938
f 59/59/25 267/574/25 80/139/25

v 105.592 78.6577 -98.9245
vt -4.15717 0.734542
f 59/59/25 268/575/25 267/574/25

v 110.299 77.3021 -99.7072
vt -4.34246 0.672911
f 59/59/25 269/576/25 268/575/25

v 114.439 74.9376 -101.072
vt -4.50549 0.565422
f 59/59/25 270/577/25 269/576/25

v 117.733 71.7256 -102.927
vt -4.63515 0.419401
f 59/59/25 271/578/25 270/577/25

v 119.954 67.8848 -105.144
vt -4.72259 0.244798
f 59/59/25 272/579/25 271/578/25

v 120.951 63.6771 -107.574
vt -4.76186 0.0535128
f 59/59/25 273/580/25 272/579/25

f 59/59/25 60/111/25 273/580/25

vt 4.09202 2.75442
vn 0.997438 0.0619539 0.0357691
vt 4.18979 2.58538
vt 6.74582 4.0637
v 120.951 101.177 -172.525
vt 6.64806 4.23274
f 273/581/122 60/582/26 62/583/26 274/584/122 

v 100.641 116.412 -163.729
vn -3.14599e-15 0.5 -0.866025
v 102 116.342 -163.77
v 105.592 116.158 -163.876
v 110.299 114.802 -164.659
v 114.439 112.438 -166.024
v 117.733 109.226 -167.879
v 119.954 105.385 -170.096
v 108.218 84.4516 -182.182
v 103.359 83.5877 -182.681
v 102 83.6576 -182.64
v 98.4079 83.8423 -182.534
v 93.7015 85.1979 -181.751
v 89.5605 87.5624 -180.386
v 86.2673 90.7744 -178.531
v 84.0462 94.6152 -176.314
v 83.0487 98.8229 -173.885
v 83.3426 103.111 -171.409
v 84.9081 107.187 -169.056
v 87.6383 110.773 -166.985
v 91.3472 113.625 -165.339
v 95.7821 115.548 -164.228
f 275/139/123 276/574/123 277/575/123 278/576/123 279/577/123 280/578/123 281/579/123 274/580/123 62/111/123 61/110/123 63/109/123 65/124/123 282/125/123 283/126/123 284/127/123 285/128/123 286/129/123 287/130/123 288/131/123 289/132/123 290/133/123 291/134/123 292/135/123 293/136/123 294/137/123 295/138/123 

vt 4.39314 4.49616
vn -0.0715382 0.863807 0.498719
vt 4.44647 4.49069
vn 0.0592656 0.864503 0.499121
vt 4.74798 7.42801
vt 4.69466 7.43348
f 80/585/124 267/586/125 276/587/125 275/588/124 

vt 4.58739 4.47622
vn 0.189055 0.850408 0.490983
vt 4.88891 7.41354
f 267/586/125 268/589/126 277/590/126 276/587/125 

vt 5.6184 2.53725
vt 5.78975 2.44359
vn 0.436765 0.779055 0.449788
vt 7.20608 5.03449
vt 7.03473 5.12816
f 268/591/126 269/592/127 278/593/127 277/594/126 

vt 5.75174 1.31577
vt 5.89307 1.18102
vn 0.65471 0.654611 0.37794
vt 7.9306 3.31814
vt 7.78927 3.45289
f 269/595/127 270/596/128 279/597/128 278/598/127 

vt 5.4651 0.974398
vt 5.58444 0.819832
vn 0.828037 0.485557 0.280336
vt 7.92162 2.62436
vt 7.80228 2.77893
f 270/599/128 271/600/129 280/601/129 279/602/128 

vt 5.05678 1.24089
vt 5.16271 1.07684
vn 0.944936 0.283412 0.163628
vt 7.64328 2.67857
vt 7.53735 2.84262
f 271/603/129 272/604/130 281/605/130 280/606/129 

vt 4.60017 1.88716
vt 4.69932 1.71893
vt 7.24311 3.21823
vt 7.14396 3.38645
f 272/607/130 273/608/122 274/609/122 281/610/130 

vt 2.00367 5.90927
vn -0.327256 0.818338 0.472468
vt 2.18807 5.97351
vt 1.21674 8.76192
vt 1.03233 8.69769
f 79/611/131 80/612/124 275/613/124 295/614/131 

vt -0.255992 6.02945
vn -0.560673 0.717101 0.414019
vt -0.101689 6.14912
vt -1.91134 8.48234
vt -2.06565 8.36267
f 78/615/132 79/616/131 295/617/131 294/618/132 

vt -1.80728 5.42152
vn -0.75588 0.566995 0.327355
vt -1.67915 5.56887
vt -3.90732 7.5064
vt -4.03545 7.35905
f 77/619/133 78/620/132 294/621/132 293/622/133 

vt -2.84593 4.5369
vn -0.899576 0.37825 0.218383
vt -2.73486 4.69752
vt -5.16346 6.377
vt -5.27453 6.21639
f 76/623/134 77/624/133 293/625/133 292/626/134 

vt -3.59615 3.55737
vn -0.981966 0.163727 0.0945277
vt -3.49465 3.72419
vt -6.01717 5.25901
vt -6.11867 5.09219
f 75/627/135 76/628/134 292/629/134 291/630/135 

vt -4.18979 2.58538
vn -0.997438 -0.0619539 -0.0357691
vt -4.09202 2.75442
vt -6.64806 4.23274
vt -6.74582 4.0637
f 74/631/136 75/632/135 291/633/135 290/634/136 

vt -4.69932 1.71893
vn -0.944936 -0.283412 -0.163628
vt -4.60017 1.88716
vt -7.14396 3.38645
vt -7.24311 3.21823
f 73/635/137 74/636/136 290/637/136 289/638/137 

vt -5.16271 1.07684
vn -0.828037 -0.485557 -0.280336
vt -5.05678 1.24089
vt -7.53735 2.84262
vt -7.64328 2.67857
f 72/639/138 73/640/137 289/641/137 288/642/138 

vt -5.58444 0.819832
vn -0.65471 -0.654611 -0.37794
vt -5.4651 0.974398
vt -7.80228 2.77893
vt -7.92162 2.62436
f 71/643/139 72/644/138 288/645/138 287/646/139 

vt -5.89307 1.18102
vn -0.436765 -0.779055 -0.449788
vt -5.75174 1.31577
vt -7.78927 3.45289
vt -7.9306 3.31814
f 70/647/140 71/648/139 287/649/139 286/650/140 

vt -5.78975 2.44359
vn -0.189055 -0.850408 -0.490983
vt -5.6184 2.53725
vt -7.03473 5.12816
vt -7.20608 5.03449
f 69/651/141 70/652/140 286/653/140 285/654/141 

vt -4.53407 4.48169
vn -0.0592656 -0.864503 -0.499121
vt -4.39314 4.49616
vt -4.69466 7.43348
vt -4.83559 7.41901
f 68/655/142 69/656/141 285/657/141 284/658/142 

vt -4.58739 4.47622
vn 0.0715382 -0.863807 -0.498719
vt -4.88891 7.41354
f 67/659/143 68/655/142 284/658/142 283/660/143 

vt -2.18807 5.97351
vn 0.327256 -0.818338 -0.472468
vt -2.00367 5.90927
vt -1.03233 8.69769
vt -1.21674 8.76192
f 66/661/144 67/662/143 283/663/143 282/664/144 

vt 0.101689 6.14912
vt 0.255992 6.02945
vt 2.06565 8.36267
vt 1.91134 8.48234
f 64/665/29 66/666/144 282/667/144 65/668/29 

v 106.259 -48.7356 -116.2
vt -4.18341 0.625741
f 34/59/1 296/669/1 56/108/1

v 110.227 -50.1591 -115.378
vt -4.33966 0.561024
f 34/59/1 297/670/1 296/669/1

v 113.635 -52.4237 -114.071
vt -4.47382 0.458074
f 34/59/1 298/671/1 297/670/1

v 116.25 -55.375 -112.367
vt -4.57677 0.323907
f 34/59/1 299/672/1 298/671/1

v 117.894 -58.8118 -110.383
vt -4.64149 0.167667
f 34/59/1 300/673/1 299/672/1

v 118.454 -62.5 -108.253
vt -4.66356 -1.02141e-14
f 34/59/1 301/674/1 300/673/1

f 34/59/1 35/62/1 301/674/1

vt 4.55905 -1.95048
vn 1 -2.34739e-14 1.1191e-14
vt 4.47395 -2.09662
vt 7.02559 -3.58252
v 118.454 -100 -173.205
vt 7.11069 -3.43638
f 301/675/145 35/676/14 37/677/14 302/678/145 

v 97.7413 -86.2356 -181.152
vn -1.11785e-14 -0.5 -0.866025
v 102 -85.75 -181.432
v 106.259 -86.2356 -181.152
v 110.227 -87.6591 -180.33
v 113.635 -89.9237 -179.023
v 116.25 -92.875 -177.319
v 117.894 -96.3118 -175.334
vt -4.66356 -2.30926e-14
v 85.5455 -100 -173.205
vt -3.36793 -1.90958e-14
v 86.1062 -96.3118 -175.334
v 87.75 -92.875 -177.319
v 90.3649 -89.9237 -179.023
v 93.7728 -87.6591 -180.33
f 303/107/146 304/108/146 305/669/146 306/670/146 307/671/146 308/672/146 309/673/146 302/679/146 37/62/146 36/61/146 38/60/146 40/75/146 43/76/146 42/3/146 44/2/146 45/4/146 46/5/146 47/6/146 49/101/146 310/680/146 311/103/146 312/104/146 313/105/146 314/106/146 

vt -4.88611 -3.94082
vt -5.05106 -3.90352
vn 4.03689e-14 0.866025 -0.5
vt -5.70218 -6.7836
vt -5.53723 -6.82089
f 55/681/109 56/682/147 304/683/147 303/684/109 

vt -2.71571 -5.65942
vt -2.88066 -5.69671
vt -2.22954 -8.57678
vt -2.06459 -8.53949
f 56/685/147 296/686/107 305/687/107 304/688/147 

vt -0.303041 -6.10502
vt -0.444001 -6.19845
vt 1.18734 -8.65965
vt 1.32831 -8.56622
f 296/689/107 297/690/120 306/691/120 305/692/107 

vt 1.4366 -5.63679
vt 1.32022 -5.75949
vt 3.46268 -7.7914
vt 3.57905 -7.66869
f 297/693/120 298/694/119 307/695/119 306/696/120 

vt 2.59042 -4.80401
vt 2.49091 -4.94074
vt 4.87839 -6.67819
vt 4.9779 -6.54145
f 298/697/119 299/698/118 308/699/118 307/700/119 

vt 3.40378 -3.83953
vt 3.31415 -3.98294
vt 5.81818 -5.54776
vt 5.9078 -5.40434
f 299/701/118 300/702/117 309/703/117 308/704/118 

vt 4.03151 -2.85639
vt 3.94641 -3.00253
vt 6.49805 -4.48843
vt 6.58315 -4.34229
f 300/705/117 301/706/145 302/707/145 309/708/117 

vt -5.74086 -2.09896
vt -5.88182 -2.00553
vt -7.51317 -4.46672
vt -7.37221 -4.56015
f 54/709/110 55/710/109 303/711/109 314/712/110 

vt -5.70492 -1.13624
vt -5.8213 -1.01354
vt -7.96375 -3.04544
vt -7.84738 -3.16815
f 53/713/111 54/714/110 314/715/110 313/716/111 

vt -5.36783 -0.987487
vt -5.46734 -0.850749
vt -7.85482 -2.5882
vt -7.75531 -2.72493
f 52/717/112 53/718/111 313/719/111 312/720/112 

vt -4.94297 -1.37651
vt -5.03259 -1.2331
vt -7.53661 -2.79791
vt -7.44699 -2.94132
f 51/721/113 52/722/112 312/723/112 311/724/113 

vt -4.47395 -2.09662
vn -1 -2.8695e-16 -2.60914e-14
vt -4.55905 -1.95048
vt -7.11069 -3.43638
vt -7.02559 -3.58252
f 50/725/148 51/726/113 311/727/113 310/728/148 

vt -3.94641 -3.00253
vt -4.03151 -2.85639
vt -6.58315 -4.34229
vt -6.49805 -4.48843
f 48/729/24 50/730/148 310/731/148 49/732/24 

vt 5.88182 -2.00553
vt 5.74086 -2.09896
vt 7.37221 -4.56015
vt 7.51317 -4.46672
f 39/733/17 41/734/18 43/735/18 40/736/17 

