# Alias OBJ Model File
# Exported from SketchUp, (c) 2000-2012 Trimble Navigation Limited
# File units = millimeters

mtllib gripper_left.mtl

g Mesh1 Model

usemtl FrontColor
v -29.5 0 -0
vt 1.16142 0
vn 0 0 -1
v -29.5 86.6025 -0
vt 1.16142 3.40955
v 29.5 86.6025 -0
vt -1.16142 3.40955
v 29.5 0 -0
vt -1.16142 0
f 1/1/1 2/2/1 3/3/1 4/4/1 

v -29.5 86.6025 3
vt 0.11811 3.40955
vn -1 0 -0
vt 0 3.40955
vt 0 0
v -29.5 0 50
vt 1.9685 0
v -29.5 6.41442 44.7847
vt 1.76318 0.252536
v -29.5 13.001 39.7885
vt 1.56648 0.51185
v -29.5 19.7522 35.0173
vt 1.37863 0.777647
v -29.5 26.6605 30.4763
vt 1.19985 1.04962
v -29.5 33.7178 26.1707
vt 1.03034 1.32747
v -29.5 40.9163 22.1055
vt 0.870294 1.61088
v -29.5 48.2477 18.2852
vt 0.719889 1.89952
v -29.5 55.7038 14.7142
vt 0.579299 2.19306
v -29.5 63.2759 11.3966
vt 0.448683 2.49118
v -29.5 70.9556 8.33604
vt 0.328191 2.79353
v -29.5 78.7341 5.53613
vt 0.217958 3.09977
f 5/5/2 2/6/2 1/7/2 6/8/2 7/9/2 8/10/2 9/11/2 10/12/2 11/13/2 12/14/2 13/15/2 14/16/2 15/17/2 16/18/2 17/19/2 

vn 0 1 -0
vt -1.16142 -0.11811
v 29.5 86.6025 3
vt 1.16142 -0.11811
f 2/4/3 5/20/3 18/21/3 3/1/3 

vt -1.16142 3.20891
vn 0 0.306775 0.951782
vt -1.16142 2.88344
vn 0 0.322775 0.946476
v 29.5 78.7341 5.53613
vt 1.16142 2.88344
vt 1.16142 3.20891
f 5/22/4 17/23/5 19/24/5 18/25/4 

vt -1.16142 2.84275
vt -1.16142 2.51728
vn 0 0.354495 0.935058
v 29.5 70.9556 8.33604
vt 1.16142 2.51728
vt 1.16142 2.84275
f 17/26/5 16/27/6 20/28/6 19/29/5 

vt -1.16142 2.47355
vt -1.16142 2.14807
vn 0 0.385811 0.922578
v 29.5 63.2759 11.3966
vt 1.16142 2.14807
vt 1.16142 2.47355
f 16/30/6 15/31/7 21/32/7 20/33/6 

vt -1.16142 2.10172
vt -1.16142 1.77624
vn 0 0.41669 0.909049
v 29.5 55.7038 14.7142
vt 1.16142 1.77624
vt 1.16142 2.10172
f 15/34/7 14/35/8 22/36/8 21/37/7 

vt -1.16142 1.72768
vt -1.16142 1.40221
vn 0 0.447095 0.894487
v 29.5 48.2477 18.2852
vt 1.16142 1.40221
vt 1.16142 1.72768
f 14/38/8 13/39/9 23/40/9 22/41/8 

vt -1.16142 1.35187
vt -1.16142 1.02639
vn 0 0.476991 0.878908
v 29.5 40.9163 22.1055
vt 1.16142 1.02639
vt 1.16142 1.35187
f 13/42/9 12/43/10 24/44/10 23/45/9 

vt -1.16142 0.974704
vt -1.16142 0.649229
vn 0 0.506346 0.86233
v 29.5 33.7178 26.1707
vt 1.16142 0.649229
vt 1.16142 0.974704
f 12/46/10 11/47/11 25/48/11 24/49/10 

vt -1.16142 0.596616
vt -1.16142 0.271141
vn 0 0.535125 0.844773
v 29.5 26.6605 30.4763
vt 1.16142 0.271141
vt 1.16142 0.596616
f 11/50/11 10/51/12 26/52/12 25/53/11 

vt -1.16142 0.218035
vt -1.16142 -0.10744
vn 0 0.563296 0.826255
v 29.5 19.7522 35.0173
vt 1.16142 -0.10744
vt 1.16142 0.218035
f 10/54/12 9/55/13 27/56/13 26/57/12 

vt -1.16142 -0.160609
vt -1.16142 -0.486084
vn 0 0.590827 0.806798
v 29.5 13.001 39.7885
vt 1.16142 -0.486084
vt 1.16142 -0.160609
f 9/58/13 8/59/14 28/60/14 27/61/13 

vt -1.16142 -0.538886
vt -1.16142 -0.864361
vn 0 0.617686 0.786425
v 29.5 6.41442 44.7847
vt 1.16142 -0.864361
vt 1.16142 -0.538886
f 8/62/14 7/63/15 29/64/15 28/65/14 

vt -1.16142 -0.916365
vt -1.16142 -1.24184
vn 0 0.630855 0.775901
v 29.5 0 50
vt 1.16142 -1.24184
vt 1.16142 -0.916365
f 7/66/15 6/67/16 30/68/16 29/69/15 

vt 1.16142 -1.9685
vn 0 -1 -0
vt -1.16142 -1.9685
f 6/70/17 1/1/17 4/4/17 30/71/17 

vn 1 0 -0
vt -0.11811 3.40955
vt -0.217958 3.09977
vt -0.328191 2.79353
vt -0.448683 2.49118
vt -0.579299 2.19306
vt -0.719889 1.89952
vt -0.870294 1.61088
vt -1.03034 1.32747
vt -1.19985 1.04962
vt -1.37863 0.777647
vt -1.56648 0.51185
vt -1.76318 0.252536
vt -1.9685 0
f 3/6/18 18/72/18 19/73/18 20/74/18 21/75/18 22/76/18 23/77/18 24/78/18 25/79/18 26/80/18 27/81/18 28/82/18 29/83/18 30/84/18 4/7/18 

