# Alias OBJ Model File
# Exported from SketchUp, (c) 2000-2012 Trimble Navigation Limited
# File units = millimeters

mtllib gripper_base.mtl

g Mesh1 Model

usemtl FrontColor
v -5.3886 13 -96
vt -3.45106 0.511811
vn -0.933257 -2.38477e-15 -0.359211
v -5.3886 -9 -96
vt -3.45106 -0.354331
v -34.641 -9 -20
vt -0.244949 -0.354331
v -34.641 2.25597e-14 -20
vt -0.244949 4.59802e-15
v -6.5433 2.25597e-14 -93
vt -3.32451 4.59802e-15
v -6.5433 13 -93
vt -3.32451 0.511811
f 1/1/1 2/2/1 3/3/1 4/4/1 5/5/1 6/6/1 

v 5.42833 -9 -96
vt -0.213714 -0.354331
vn 0 0 -1
vt 0.21215 -0.354331
vt 0.21215 0.511811
v 5.42833 13 -96
vt -0.213714 0.511811
f 7/7/2 2/8/2 1/9/2 8/10/2 

vt 1.36382 0.787402
vn 3.33576e-17 -1 -3.13028e-16
vt 0.21215 3.77953
vt -0.213714 3.77953
v 38.637 -9 -10.3528
vt -1.52114 0.407589
v 34.641 -9 -20
vt -1.36382 0.787402
v 28.2843 -9 -28.2843
vt -1.11355 1.11355
v 20 -9 -34.641
vt -0.787402 1.36382
v 10.3528 -9 -38.637
vt -0.407589 1.52114
v 0 -9 -40
vt 1.18196e-17 1.5748
v -10.3528 -9 -38.637
vt 0.407589 1.52114
v -20 -9 -34.641
vt 0.787402 1.36382
v -28.2843 -9 -28.2843
vt 1.11355 1.11355
f 3/11/3 2/12/3 7/13/3 9/14/3 10/15/3 11/16/3 12/17/3 13/18/3 14/19/3 15/20/3 16/21/3 17/22/3 

vt -0.169892 -0.354331
vn 0.932367 -1.86985e-16 -0.361514
vt 3.44664 -0.354331
vt 3.44664 0.511811
v 6.59155 13 -93
vt 3.31997 0.511811
v 6.59155 2.25597e-14 -93
vt 3.31997 1.18092e-15
v 38.637 2.25597e-14 -10.3528
vt -0.169892 1.18092e-15
f 9/23/4 7/24/4 8/25/4 18/26/4 19/27/4 20/28/4 

vt 0.213714 3.77953
vn 0 1 -0
vt -0.21215 3.77953
vt -0.25761 3.66142
vt 0.25951 3.66142
f 8/29/5 1/30/5 6/31/5 18/32/5 

vt -0.25761 8.88178e-16
vn 0 0 1
vt 0.25951 8.88178e-16
vt 0.25951 0.511811
vt -0.25761 0.511811
f 5/33/6 19/34/6 18/35/6 6/36/6 

v -34.641 2.25597e-14 20
vt -1.36382 -0.787402
v -6.5433 2.25597e-14 93
vt -0.25761 -3.66142
v 6.59155 2.25597e-14 93
vt 0.25951 -3.66142
v 38.637 2.25597e-14 10.3528
vt 1.52114 -0.407589
v 40 2.25597e-14 -3.60956e-13
vt 1.5748 1.42109e-14
vt 1.52114 0.407589
v -38.637 2.25597e-14 -10.3528
v -40 2.25597e-14 -0
vt -1.5748 0
v -38.637 2.25597e-14 10.3528
vt -1.52114 -0.407589
f 21/37/5 22/38/5 23/39/5 24/40/5 25/41/5 20/42/5 19/32/5 5/31/5 4/15/5 26/14/5 27/43/5 28/44/5 

v -34.641 -9 20
vt 0.244949 -0.354331
vn -0.933257 -1.19239e-16 0.359211
v -5.3886 -9 96
vt 3.45106 -0.354331
v -5.3886 13 96
vt 3.45106 0.511811
v -6.5433 13 93
vt 3.32451 0.511811
vt 3.32451 1.07367e-15
vt 0.244949 1.07367e-15
f 29/45/7 30/46/7 31/47/7 32/48/7 22/49/7 21/50/7 

v 34.641 -9 20
vn 1.73939e-17 -1 1.79514e-16
v 38.637 -9 10.3528
v 5.42833 -9 96
vt -0.213714 -3.77953
vt 0.21215 -3.77953
vt 1.36382 -0.787402
v -28.2843 -9 28.2843
vt 1.11355 -1.11355
v -20 -9 34.641
vt 0.787402 -1.36382
v -10.3528 -9 38.637
vt 0.407589 -1.52114
v 0 -9 40
vt 6.1632e-18 -1.5748
v 10.3528 -9 38.637
vt -0.407589 -1.52114
v 20 -9 34.641
vt -0.787402 -1.36382
v 28.2843 -9 28.2843
vt -1.11355 -1.11355
f 33/37/8 34/44/8 35/51/8 30/52/8 29/53/8 36/54/8 37/55/8 38/56/8 39/57/8 40/58/8 41/59/8 42/60/8 

vt 0.205553 -0.354331
vn 0.965926 0 0.258819
vt -0.205553 -0.354331
vn 0.866025 0 0.5
v 34.641 -39 20
vt -0.205553 -1.53543
v 38.637 -39 10.3528
vt 0.205553 -1.53543
f 34/61/9 33/62/10 43/63/10 44/64/9 

vn 0.707107 0 0.707107
v 28.2843 -39 28.2843
f 33/61/10 42/62/11 45/63/11 43/64/10 

vn 0.5 0 0.866025
v 20 -39 34.641
f 42/61/11 41/62/12 46/63/12 45/64/11 

vn 0.258819 0 0.965926
v 10.3528 -39 38.637
f 41/61/12 40/62/13 47/63/13 46/64/12 

vn 8.39852e-17 0 1
v 0 -39 40
f 40/61/13 39/62/14 48/63/14 47/64/13 

vn -0.258819 0 0.965926
v -10.3528 -39 38.637
f 39/61/14 38/62/15 49/63/15 48/64/14 

vn -0.5 0 0.866025
v -20 -39 34.641
f 38/61/15 37/62/16 50/63/16 49/64/15 

vn -0.707107 0 0.707107
v -28.2843 -39 28.2843
f 37/61/16 36/62/17 51/63/17 50/64/16 

vn -0.866025 0 0.5
v -34.641 -39 20
f 36/61/17 29/62/18 52/63/18 51/64/17 

v -38.637 -9 10.3528
vn -0.965926 0 0.258819
v -38.637 -39 10.3528
f 29/61/18 53/62/19 54/63/19 52/64/18 

vt 0.205553 1.00674e-14
vn -0.92388 -5.87913e-15 0.382683
vt -0.205553 1.00674e-14
vn -0.965926 -4.99948e-15 0.258819
f 21/65/20 28/66/21 53/62/21 29/61/20 

vt 0.205553 7.18703e-15
vt -0.205553 7.18703e-15
vn -0.991445 -4.03428e-15 0.130526
v -40 -9 -0
f 28/67/21 27/68/22 55/62/22 53/61/21 

vt 0.205553 1.54429e-14
vn -0.991445 -9.32201e-15 -0.130526
vt -0.205553 1.54429e-14
vn -0.965926 -1.49243e-14 -0.258819
v -38.637 -9 -10.3528
f 27/69/23 26/70/24 56/62/24 55/61/23 

vt 0.205553 3.25382e-14
vt -0.205553 3.25382e-14
vn -0.92388 -2.02712e-14 -0.382683
f 26/71/24 4/72/25 3/62/25 56/61/24 

vn -0.965926 0 -0.258819
vn -0.866025 0 -0.5
v -34.641 -39 -20
v -38.637 -39 -10.3528
f 56/61/26 3/62/27 57/63/27 58/64/26 

vn -0.707107 0 -0.707107
v -28.2843 -39 -28.2843
f 3/61/27 17/62/28 59/63/28 57/64/27 

vn -0.5 0 -0.866025
v -20 -39 -34.641
f 17/61/28 16/62/29 60/63/29 59/64/28 

vn -0.258819 0 -0.965926
v -10.3528 -39 -38.637
f 16/61/29 15/62/30 61/63/30 60/64/29 

vn -2.79951e-16 0 -1
v 0 -39 -40
f 15/61/30 14/62/31 62/63/31 61/64/30 

vn 0.258819 0 -0.965926
v 10.3528 -39 -38.637
f 14/61/31 13/62/32 63/63/32 62/64/31 

vn 0.5 0 -0.866025
v 20 -39 -34.641
f 13/61/32 12/62/33 64/63/33 63/64/32 

vn 0.707107 0 -0.707107
v 28.2843 -39 -28.2843
f 12/61/33 11/62/34 65/63/34 64/64/33 

vn 0.866025 0 -0.5
v 34.641 -39 -20
f 11/61/34 10/62/35 66/63/35 65/64/34 

vn 0.965926 0 -0.258819
v 38.637 -39 -10.3528
f 10/61/35 9/62/36 67/63/36 66/64/35 

v 40 -9 -0
vn 0.991445 0 -0.130526
v 40 -39 -0
f 9/61/36 68/62/37 69/63/37 67/64/36 

vt 0.205553 -1.42051e-14
vn 0.991445 9.66696e-15 -0.130526
vt -0.205553 -1.42051e-14
f 20/73/38 25/74/38 68/62/38 9/61/38 

vt 0.205553 -1.89242e-14
vn 0.991445 1.26894e-14 0.130526
vt -0.205553 -1.89242e-14
f 25/75/39 24/76/39 34/62/39 68/61/39 

v 5.42833 13 96
vt -3.44664 0.511811
vn 0.932367 1.12191e-15 0.361514
vt -3.44664 -0.354331
vt 0.169892 -0.354331
vt 0.169892 -8.68299e-16
vt -3.31997 -8.68299e-16
v 6.59155 13 93
vt -3.31997 0.511811
f 70/77/40 35/78/40 34/79/40 24/80/40 23/81/40 71/82/40 

vt -0.21215 -0.354331
vt 0.213714 -0.354331
vt 0.213714 0.511811
vt -0.21215 0.511811
f 30/83/6 35/84/6 70/85/6 31/86/6 

vt -0.21215 -3.77953
vt 0.213714 -3.77953
f 32/38/5 31/87/5 70/88/5 71/39/5 

vt -0.25951 8.88178e-16
vt 0.25761 8.88178e-16
vt 0.25761 0.511811
vt -0.25951 0.511811
f 23/89/2 22/90/2 32/91/2 71/92/2 

vn 0.991445 0 0.130526
f 68/61/41 34/62/9 44/63/9 69/64/41 

vn 6.62684e-33 -1 -1.23425e-31
vt -1.5748 -1.89511e-31
vt 1.01751e-32 -1.5748
v -40 -39 -0
vt 1.5748 -1.89511e-31
vt 1.01751e-32 1.5748
f 67/14/42 69/93/42 44/44/42 43/37/42 45/60/42 46/59/42 47/58/42 48/94/42 49/56/42 50/55/42 51/54/42 52/53/42 54/40/42 72/95/42 58/42/42 57/11/42 59/22/42 60/21/42 61/20/42 62/96/42 63/18/42 64/17/42 65/16/42 66/15/42 

vn -0.991445 0 0.130526
f 53/61/19 55/62/43 72/63/43 54/64/19 

vn -0.991445 0 -0.130526
f 55/61/44 56/62/26 58/63/26 72/64/44 

