# Alias OBJ Model File
# Exported from SketchUp, (c) 2000-2012 Trimble Navigation Limited
# File units = millimeters

mtllib gripper_right.mtl

g Mesh1 Model

usemtl FrontColor
v 29.5 86.6025 -3
vt 0.11811 3.40955
vn 1 0 -0
v 29.5 86.6025 -0
vt 0 3.40955
v 29.5 0 -0
vt 0 0
v 29.5 4.51195e-14 -50
vt 1.9685 1.77636e-15
v 29.5 6.23689 -44.5364
vt 1.7534 0.245547
v 29.5 12.6894 -39.3291
vt 1.54839 0.499581
v 29.5 19.3468 -34.3866
vt 1.3538 0.761687
v 29.5 26.1985 -29.717
vt 1.16996 1.03144
v 29.5 33.2332 -25.3279
vt 0.997163 1.30839
v 29.5 40.4393 -21.2266
vt 0.835691 1.5921
v 29.5 47.8052 -17.4195
vt 0.685808 1.8821
v 29.5 55.3189 -13.9131
vt 0.54776 2.17791
v 29.5 62.968 -10.713
vt 0.42177 2.47906
v 29.5 70.7402 -7.82433
vt 0.308045 2.78505
v 29.5 78.6226 -5.25195
vt 0.20677 3.09538
f 1/1/1 2/2/1 3/3/1 4/4/1 5/5/1 6/6/1 7/7/1 8/8/1 9/9/1 10/10/1 11/11/1 12/12/1 13/13/1 14/14/1 15/15/1 

vt 1.16142 0
vn 0 1 -0
vt 1.16142 0.11811
v -29.5 86.6025 -3
vt -1.16142 0.11811
v -29.5 86.6025 -0
vt -1.16142 0
f 2/16/2 1/17/2 16/18/2 17/19/2 

vt -1.16142 3.24931
vn 0 0.271595 -0.962412
vt -1.16142 2.92287
vn 0 0.290977 -0.95673
v -29.5 78.6226 -5.25195
vt 1.16142 2.92287
vt 1.16142 3.24931
f 1/20/3 15/21/4 18/22/4 16/23/3 

vt -1.16142 2.8785
vt -1.16142 2.55206
vn 0 0.329377 -0.944198
v -29.5 70.7402 -7.82433
vt 1.16142 2.55206
vt 1.16142 2.8785
f 15/24/4 14/25/5 19/26/5 18/27/4 

vt -1.16142 2.50326
vt -1.16142 2.17682
vn 0 0.36724 -0.930126
v -29.5 62.968 -10.713
vt 1.16142 2.17682
vt 1.16142 2.50326
f 14/28/5 13/29/6 20/30/6 19/31/5 

vt -1.16142 2.1242
vt -1.16142 1.79776
vn 0 0.404504 -0.914536
v -29.5 55.3189 -13.9131
vt 1.16142 1.79776
vt 1.16142 2.1242
f 13/32/6 12/33/7 21/34/7 20/35/6 

vt -1.16142 1.74194
vt -1.16142 1.4155
vn 0 0.441108 -0.897454
v -29.5 47.8052 -17.4195
vt 1.16142 1.4155
vt 1.16142 1.74194
f 12/36/7 11/37/8 22/38/8 21/39/7 

vt -1.16142 1.3571
vt -1.16142 1.03066
vn 0 0.476991 -0.878908
v -29.5 40.4393 -21.2266
vt 1.16142 1.03066
vt 1.16142 1.3571
f 11/40/8 10/41/9 23/42/9 22/43/8 

vt -1.16142 0.970315
vt -1.16142 0.643875
vn 0 0.512097 -0.858928
v -29.5 33.2332 -25.3279
vt 1.16142 0.643875
vt 1.16142 0.970315
f 10/44/9 9/45/10 24/46/10 23/47/9 

vt -1.16142 0.582214
vt -1.16142 0.255774
vn 0 0.546367 -0.837546
v -29.5 26.1985 -29.717
vt 1.16142 0.255774
vt 1.16142 0.582214
f 9/48/10 8/49/11 25/50/11 24/51/10 

vt -1.16142 0.193429
vt -1.16142 -0.133011
vn 0 0.579746 -0.814797
v -29.5 19.3468 -34.3866
vt 1.16142 -0.133011
vt 1.16142 0.193429
f 8/52/11 7/53/12 26/54/12 25/55/11 

vt -1.16142 -0.195405
vt -1.16142 -0.521845
vn 0 0.612179 -0.79072
v -29.5 12.6894 -39.3291
vt 1.16142 -0.521845
vt 1.16142 -0.195405
f 7/56/12 6/57/13 27/58/13 26/59/12 

vt -1.16142 -0.583653
vt -1.16142 -0.910093
vn 0 0.643612 -0.765352
v -29.5 6.23689 -44.5364
vt 1.16142 -0.910093
vt 1.16142 -0.583653
f 6/60/13 5/61/14 28/62/14 27/63/13 

vt -1.16142 -0.970683
vt -1.16142 -1.29712
vn 0 0.658939 -0.752197
v -29.5 4.51195e-14 -50
vt 1.16142 -1.29712
vt 1.16142 -0.970683
f 5/64/14 4/65/15 29/66/15 28/67/14 

vt -1.16142 1.9685
vn 0 -1 -9.02389e-16
v -29.5 0 -0
vt 1.16142 1.9685
f 4/68/16 3/19/16 30/16/16 29/69/16 

vn 0 0 1
vt 1.16142 3.40955
vt -1.16142 3.40955
f 3/16/17 2/70/17 17/71/17 30/19/17 

vn -1 0 -0
vt -0.11811 3.40955
vt -0.20677 3.09538
vt -0.308045 2.78505
vt -0.42177 2.47906
vt -0.54776 2.17791
vt -0.685808 1.8821
vt -0.835691 1.5921
vt -0.997163 1.30839
vt -1.16996 1.03144
vt -1.3538 0.761687
vt -1.54839 0.499581
vt -1.7534 0.245547
vt -1.9685 1.77636e-15
f 17/2/18 16/72/18 18/73/18 19/74/18 20/75/18 21/76/18 22/77/18 23/78/18 24/79/18 25/80/18 26/81/18 27/82/18 28/83/18 29/84/18 30/3/18 

